<svg version="1.2" baseProfile="tiny" xmlns="http://www.w3.org/2000/svg" viewBox="0 0 839 290.5" overflow="visible" xml:space="preserve">
    <path fill="#334155" d="M28.7 26.6h222.5c5.3 0 9.7 4.3 9.7 9.7v222.5c0 5.3-4.3 9.7-9.7 9.7H28.7c-5.3 0-9.7-4.3-9.7-9.7V36.2c0-5.3 4.3-9.6 9.7-9.6z"/>
    <path fill="#CBD5E1" d="M159 205h29L152.5 90.1h-25.3L91.9 205h29l5.1-21.5h28l5 21.5zm-28-42.8 9-38 9 38h-18z"/>
    <path fill="#344155" d="M530.8 153.7c13.5-12.8 14.8-40.5 6-56.3C522.2 70 475.3 80.5 450 78.5v139h33v-49h7.6l20 50H546v-1.4l-23.8-57c3.3-2 6.3-4.1 8.6-6.4zM483 104.5c4.8.5 17.7-1.5 21.3 2.4 7.7 7.7 7.9 26.3-.3 33.7-2.6 2.4-12.4 2.3-21 2v-38.1zm-95.7-26h-21.9l-42.9 139h35.1l5.9-25h34.4c2.7 11.1 4.8 20.1 5.9 25h35.1l-43-139h-8.6zm-17.7 88 11.2-47.6c3.2 15 7.2 31.9 10.9 47.6h-22.1zm450.7 51h-37.5L767 170.4l-16 47.1h-37.7l32-70.1L714 78.5h37.2l15.7 46.2 15.5-46.2h37.1l-31 68.9 31.8 70.1zM617 78.5h33v26h-33v113h-33v-113h-33v-26h66zm49 0h33v139h-33v-139z"/>
</svg>
